<?xml version="1.0" standalone="no"?><svg xmlns:xlink="http://www.w3.org/1999/xlink" xmlns="http://www.w3.org/2000/svg" viewBox="0 0 1000 625" preserveAspectRatio="xMaxYMax slice"><g transform="scale(0.8802816901408451)"><rect x="0" y="0" width="1136" height="710" fill="#ffffff"/><rect x="0" y="0" width="71" height="71" fill="#ffffff"/><rect x="0" y="0" width="35.5" height="35.5" fill="#fef9f3"/><path d="M 0 0 A 35.5 35.5 0 0 0 35.5 35.5 L 35.5 0" fill="#dd87a5"/><rect x="35.5" y="0" width="35.5" height="35.5" fill="#e97f03"/><path d="M 35.5 35.5 A 35.5 35.5 0 0 0 71 0 L 35.5 0" fill="#f5c48a"/><rect x="0" y="35.5" width="35.5" height="35.5" fill="#9fad3b"/><path d="M 0 71 A 35.5 35.5 0 0 1  35.5 35.5 L 35.5 71" fill="#fefdfd"/><rect x="35.5" y="35.5" width="35.5" height="35.5" fill="#d87699"/><path d="M 35.5 35.5 A 35.5 35.5 0 0 1 71 71 L 35.5 71" fill="#f4c082"/><rect x="71" y="0" width="71" height="71" fill="#ffffff"/><rect x="71" y="0" width="35.5" height="35.5" fill="#fefaf4"/><path d="M 71 0 A 35.5 35.5 0 0 1 106.5 35.5 L 71 35.5" fill="#afbb5c"/><rect x="106.5" y="0" width="35.5" height="35.5" fill="#d3daa6"/><path d="M 106.5 35.5 A 35.5 35.5 0 0 1  142 0 L 142 35.5" fill="#91a11e"/><rect x="71" y="35.5" width="35.5" height="35.5" fill="#c3295f"/><path d="M 71 71 A 35.5 35.5 0 0 0 106.5 35.5 L 71 35.5" fill="#f2edf1"/><rect x="106.5" y="35.5" width="35.5" height="35.5" fill="#ca4474"/><path d="M 106.5 35.5 A 35.5 35.5 0 0 0 142 71 L 142 35.5" fill="#fcefdf"/><rect x="142" y="0" width="71" height="71" fill="#d9ccd7"/><path d="M 142 71 A 71 71 0 0 1  213 0 L 213 71" fill="#eec3d2"/><rect x="213" y="0" width="71" height="71" fill="#ffffff"/><rect x="213" y="0" width="35.5" height="35.5" fill="#fdf6ed"/><path d="M 213 0 A 35.5 35.5 0 0 0 248.5 35.5 L 248.5 0" fill="#521647"/><rect x="248.5" y="0" width="35.5" height="35.5" fill="#92a21f"/><path d="M 248.5 35.5 A 35.5 35.5 0 0 0 284 0 L 248.5 0" fill="#c2acbd"/><rect x="213" y="35.5" width="35.5" height="35.5" fill="#fbe9d4"/><path d="M 213 71 A 35.5 35.5 0 0 1  248.5 35.5 L 248.5 71" fill="#b69cb1"/><rect x="248.5" y="35.5" width="35.5" height="35.5" fill="#f5c58c"/><path d="M 248.5 35.5 A 35.5 35.5 0 0 1 284 71 L 248.5 71" fill="#f9d225"/><rect x="284" y="0" width="71" height="71" fill="#ffffff"/><rect x="284" y="0" width="35.5" height="35.5" fill="#f4d6e1"/><polygon points="319.5,0 319.5,35.5 284,35.5" fill="#f4f1f4"/><rect x="319.5" y="0" width="35.5" height="35.5" fill="#eaedd4"/><polygon points="319.5,0 355,35.5 319.5,35.5" fill="#c7cf8c"/><rect x="284" y="35.5" width="35.5" height="35.5" fill="#dbe1b6"/><polygon points="284,35.5 319.5,35.5 284,71" fill="#f6dfe7"/><rect x="319.5" y="35.5" width="35.5" height="35.5" fill="#de8ba8"/><polygon points="319.5,35.5 355,35.5 355,71" fill="#906a89"/><rect x="355" y="0" width="71" height="71" fill="#ffffff"/><rect x="355" y="0" width="35.5" height="35.5" fill="#8b9c12"/><path d="M 355 35.5 A 35.5 35.5 0 0 0 390.5 0 L 355 0" fill="#f4d8e2"/><rect x="390.5" y="0" width="35.5" height="35.5" fill="#a9b54e"/><path d="M 390.5 0 A 35.5 35.5 0 0 0 426 35.5 L 426 0" fill="#bcc675"/><rect x="355" y="35.5" width="35.5" height="35.5" fill="#f9d32d"/><path d="M 355 35.5 A 35.5 35.5 0 0 1 390.5 71 L 355 71" fill="#fdedab"/><rect x="390.5" y="35.5" width="35.5" height="35.5" fill="#78496f"/><path d="M 390.5 71 A 35.5 35.5 0 0 1  426 35.5 L 426 71" fill="#c1ca7f"/><rect x="426" y="0" width="71" height="71" fill="#ffffff"/><rect x="426" y="0" width="35.5" height="35.5" fill="#fef9f4"/><path d="M 426 0 A 35.5 35.5 0 0 1 461.5 35.5 L 426 35.5" fill="#a687a0"/><rect x="461.5" y="0" width="35.5" height="35.5" fill="#65305b"/><path d="M 461.5 35.5 A 35.5 35.5 0 0 1  497 0 L 497 35.5" fill="#fef6d4"/><rect x="426" y="35.5" width="35.5" height="35.5" fill="#8d6585"/><path d="M 426 71 A 35.5 35.5 0 0 0 461.5 35.5 L 426 35.5" fill="#511545"/><rect x="461.5" y="35.5" width="35.5" height="35.5" fill="#e5a1b9"/><path d="M 461.5 35.5 A 35.5 35.5 0 0 0 497 71 L 497 35.5" fill="#f8d5ac"/><rect x="497" y="0" width="71" height="71" fill="#ffffff"/><rect x="497" y="0" width="35.5" height="35.5" fill="#e1e5c1"/><path d="M 497 35.5 A 35.5 35.5 0 0 1 532.5 0 L 532.5 8.875 A 26.625 26.625 0 0 0 505.875 35.5" fill="#95a425"/><rect x="532.5" y="0" width="35.5" height="35.5" fill="#be1752"/><path d="M 532.5 0 A 35.5 35.5 0 0 1 568 35.5 L 559.125 35.5 A 26.625 26.625 0 0 0 532.5 8.875" fill="#f9d124"/><rect x="497" y="35.5" width="35.5" height="35.5" fill="#c83c6d"/><path d="M 497 35.5 A 35.5 35.5 0 0 0 532.5 71 L 532.5 62.125 A 26.625 26.625 0 0 1 505.875 35.5" fill="#f2b369"/><rect x="532.5" y="35.5" width="35.5" height="35.5" fill="#c83a6c"/><path d="M 532.5 71 A 35.5 35.5 0 0 0 568 35.5 L 559.125 35.5 A 26.625 26.625 0 0 1 532.5 62.125" fill="#6b3861"/><rect x="568" y="0" width="71" height="71" fill="#fae3c8"/><polygon points="568,0 639,0 639,71" fill="#b59bb0"/><rect x="639" y="0" width="71" height="71" fill="#c5cd88"/><polygon points="639,0 710,71 639,71" fill="#dadfb3"/><rect x="710" y="0" width="71" height="71" fill="#ffffff"/><rect x="710" y="0" width="35.5" height="35.5" fill="#e49fb7"/><path d="M 710 0 A 35.5 35.5 0 0 1 745.5 35.5 L 710 35.5" fill="#ccd497"/><rect x="745.5" y="0" width="35.5" height="35.5" fill="#da7b9c"/><path d="M 745.5 35.5 A 35.5 35.5 0 0 1  781 0 L 781 35.5" fill="#ed9731"/><rect x="710" y="35.5" width="35.5" height="35.5" fill="#eab6c8"/><path d="M 710 71 A 35.5 35.5 0 0 0 745.5 35.5 L 710 35.5" fill="#fadb52"/><rect x="745.5" y="35.5" width="35.5" height="35.5" fill="#8d9d15"/><path d="M 745.5 35.5 A 35.5 35.5 0 0 0 781 71 L 781 35.5" fill="#f8ce12"/><rect x="781" y="0" width="71" height="71" fill="#ffffff"/><rect x="781" y="0" width="35.5" height="35.5" fill="#e1d6df"/><path d="M 781 35.5 A 35.5 35.5 0 0 1  816.5 0 L 816.5 35.5" fill="#f4be7f"/><rect x="816.5" y="0" width="35.5" height="35.5" fill="#fffcef"/><path d="M 816.5 0 A 35.5 35.5 0 0 1 852 35.5 L 816.5 35.5" fill="#a687a0"/><rect x="781" y="35.5" width="35.5" height="35.5" fill="#a2829c"/><path d="M 781 35.5 A 35.5 35.5 0 0 0 816.5 71 L 816.5 35.5" fill="#c53064"/><rect x="816.5" y="35.5" width="35.5" height="35.5" fill="#9baa33"/><path d="M 816.5 71 A 35.5 35.5 0 0 0 852 35.5 L 816.5 35.5" fill="#c42f64"/><rect x="852" y="0" width="71" height="71" fill="#c73a6c"/><rect x="852" y="0" width="71" height="71" fill="#bba3b6"/><rect x="923" y="0" width="71" height="71" fill="#d4658c"/><polygon points="923,0 994,71 923,71" fill="#d4daa6"/><rect x="994" y="0" width="71" height="71" fill="#fbe379"/><rect x="994" y="0" width="71" height="71" fill="#f6ca96"/><rect x="1065" y="0" width="71" height="71" fill="#ffffff"/><rect x="1065" y="0" width="35.5" height="35.5" fill="#f9d01b"/><polygon points="1100.5,0 1100.5,35.5 1065,35.5" fill="#eb8c1c"/><rect x="1100.5" y="0" width="35.5" height="35.5" fill="#f5f1f4"/><polygon points="1100.5,0 1136,35.5 1100.5,35.5" fill="#602955"/><rect x="1065" y="35.5" width="35.5" height="35.5" fill="#e1e5c1"/><polygon points="1065,35.5 1100.5,35.5 1065,71" fill="#f4f0f3"/><rect x="1100.5" y="35.5" width="35.5" height="35.5" fill="#b398ae"/><polygon points="1100.5,35.5 1136,35.5 1136,71" fill="#f7cfa1"/><rect x="0" y="71" width="71" height="71" fill="#aab651"/><rect x="0" y="71" width="71" height="71" fill="#fcea9c"/><rect x="71" y="71" width="71" height="71" fill="#ffffff"/><rect x="71" y="71" width="35.5" height="35.5" fill="#ee9c3a"/><path d="M 71 71 A 35.5 35.5 0 0 1 106.5 106.5 L 71 106.5" fill="#b9c36f"/><rect x="106.5" y="71" width="35.5" height="35.5" fill="#a2b041"/><path d="M 106.5 106.5 A 35.5 35.5 0 0 1  142 71 L 142 106.5" fill="#fceca2"/><rect x="71" y="106.5" width="35.5" height="35.5" fill="#ca4272"/><path d="M 71 142 A 35.5 35.5 0 0 0 106.5 106.5 L 71 106.5" fill="#d6dcaa"/><rect x="106.5" y="106.5" width="35.5" height="35.5" fill="#bac472"/><path d="M 106.5 106.5 A 35.5 35.5 0 0 0 142 142 L 142 106.5" fill="#b0bc5d"/><rect x="142" y="71" width="71" height="71" fill="#ffffff"/><rect x="142" y="71" width="35.5" height="35.5" fill="#f6cd9c"/><path d="M 142 106.5 A 35.5 35.5 0 0 0 177.5 71 L 142 71" fill="#f2b165"/><rect x="177.5" y="71" width="35.5" height="35.5" fill="#b59bb0"/><path d="M 177.5 71 A 35.5 35.5 0 0 0 213 106.5 L 213 71" fill="#f4d8e2"/><rect x="142" y="106.5" width="35.5" height="35.5" fill="#ccd497"/><path d="M 142 106.5 A 35.5 35.5 0 0 1 177.5 142 L 142 142" fill="#bea8ba"/><rect x="177.5" y="106.5" width="35.5" height="35.5" fill="#ebb6c9"/><path d="M 177.5 142 A 35.5 35.5 0 0 1  213 106.5 L 213 142" fill="#f4be7f"/><rect x="213" y="71" width="71" height="71" fill="#ffffff"/><rect x="213" y="71" width="35.5" height="35.5" fill="#fffdf5"/><path d="M 213 106.5 A 35.5 35.5 0 0 1  248.5 71 L 248.5 106.5" fill="#a0ae3d"/><rect x="248.5" y="71" width="35.5" height="35.5" fill="#c01e57"/><path d="M 248.5 71 A 35.5 35.5 0 0 1 284 106.5 L 248.5 106.5" fill="#c42e63"/><rect x="213" y="106.5" width="35.5" height="35.5" fill="#bac471"/><path d="M 213 106.5 A 35.5 35.5 0 0 0 248.5 142 L 248.5 106.5" fill="#baa2b6"/><rect x="248.5" y="106.5" width="35.5" height="35.5" fill="#ffffff"/><path d="M 248.5 142 A 35.5 35.5 0 0 0 284 106.5 L 248.5 106.5" fill="#cad192"/><rect x="284" y="71" width="71" height="71" fill="#ec9023"/><polygon points="284,71 355,142 284,142" fill="#bd1651"/><rect x="355" y="71" width="71" height="71" fill="#ffffff"/><rect x="355" y="71" width="35.5" height="35.5" fill="#f9d120"/><circle cx="372.75" cy="88.75" r="17.75" fill="#fae0c2"/><rect x="390.5" y="71" width="35.5" height="35.5" fill="#f9d32d"/><rect x="390.5" y="71" width="35.5" height="35.5" fill="#ec9227"/><rect x="355" y="106.5" width="35.5" height="35.5" fill="#fffdf6"/><circle cx="372.75" cy="124.25" r="17.75" fill="#ece5eb"/><rect x="390.5" y="106.5" width="35.5" height="35.5" fill="#9eac37"/><rect x="390.5" y="106.5" width="35.5" height="35.5" fill="#fbe47d"/><rect x="426" y="71" width="71" height="71" fill="#fdf1bb"/><rect x="426" y="71" width="71" height="71" fill="#ec8f23"/><rect x="497" y="71" width="71" height="71" fill="#f2b66f"/><rect x="497" y="71" width="71" height="71" fill="#eab3c6"/><rect x="568" y="71" width="71" height="71" fill="#93a322"/><rect x="568" y="71" width="71" height="71" fill="#a687a0"/><rect x="639" y="71" width="71" height="71" fill="#ffffff"/><rect x="639" y="71" width="35.5" height="35.5" fill="#f3bc7a"/><path d="M 639 106.5 A 35.5 35.5 0 0 1  674.5 71 L 674.5 106.5" fill="#f1af60"/><rect x="674.5" y="71" width="35.5" height="35.5" fill="#fae1c4"/><path d="M 674.5 71 A 35.5 35.5 0 0 1 710 106.5 L 674.5 106.5" fill="#fffefb"/><rect x="639" y="106.5" width="35.5" height="35.5" fill="#ea8208"/><path d="M 639 106.5 A 35.5 35.5 0 0 0 674.5 142 L 674.5 106.5" fill="#efa043"/><rect x="674.5" y="106.5" width="35.5" height="35.5" fill="#fef4c8"/><path d="M 674.5 142 A 35.5 35.5 0 0 0 710 106.5 L 674.5 106.5" fill="#c53165"/><rect x="710" y="71" width="71" height="71" fill="#eec3d2"/><path d="M 710 71 A 71 71 0 0 1  781 142 L 710 71 A 71 71 0 0 0 781 142" fill="#4d0f41"/><rect x="781" y="71" width="71" height="71" fill="#ffffff"/><rect x="781" y="71" width="35.5" height="35.5" fill="#f5c48a"/><path d="M 781 106.5 A 35.5 35.5 0 0 0 816.5 71 L 781 71" fill="#fada4f"/><rect x="816.5" y="71" width="35.5" height="35.5" fill="#fae0c2"/><path d="M 816.5 71 A 35.5 35.5 0 0 0 852 106.5 L 852 71" fill="#96728f"/><rect x="781" y="106.5" width="35.5" height="35.5" fill="#c8b5c5"/><path d="M 781 106.5 A 35.5 35.5 0 0 1 816.5 142 L 781 142" fill="#c53366"/><rect x="816.5" y="106.5" width="35.5" height="35.5" fill="#ce507c"/><path d="M 816.5 142 A 35.5 35.5 0 0 1  852 106.5 L 852 142" fill="#f8ce12"/><rect x="852" y="71" width="71" height="71" fill="#df8fab"/><rect x="852" y="71" width="71" height="71" fill="#d15b84"/><rect x="923" y="71" width="71" height="71" fill="#f9ce13"/><rect x="923" y="71" width="71" height="71" fill="#fbfbf7"/><rect x="994" y="71" width="71" height="71" fill="#ffffff"/><rect x="994" y="71" width="35.5" height="35.5" fill="#e97f03"/><path d="M 994 71 A 35.5 35.5 0 0 0 1029.5 106.5 L 1029.5 71" fill="#f8cb07"/><rect x="1029.5" y="71" width="35.5" height="35.5" fill="#fce994"/><path d="M 1029.5 106.5 A 35.5 35.5 0 0 0 1065 71 L 1029.5 71" fill="#bf1b54"/><rect x="994" y="106.5" width="35.5" height="35.5" fill="#fbe06a"/><path d="M 994 142 A 35.5 35.5 0 0 1  1029.5 106.5 L 1029.5 142" fill="#e9ecd2"/><rect x="1029.5" y="106.5" width="35.5" height="35.5" fill="#d1c1ce"/><path d="M 1029.5 106.5 A 35.5 35.5 0 0 1 1065 142 L 1029.5 142" fill="#a1809b"/><rect x="1065" y="71" width="71" height="71" fill="#8d6686"/><polygon points="1065,71 1136,71 1136,142" fill="#fad947"/><rect x="0" y="142" width="71" height="71" fill="#fcea99"/><path d="M 0 213 A 71 71 0 0 1  71 142 L 0 213 A 71 71 0 0 0 71 142" fill="#ebb9cb"/><rect x="71" y="142" width="71" height="71" fill="#edc0d0"/><rect x="71" y="142" width="71" height="71" fill="#fdf7f9"/><rect x="142" y="142" width="71" height="71" fill="#ffffff"/><rect x="142" y="142" width="35.5" height="35.5" fill="#f9d431"/><path d="M 142 177.5 A 35.5 35.5 0 0 1  177.5 142 L 177.5 177.5" fill="#f1ceda"/><rect x="177.5" y="142" width="35.5" height="35.5" fill="#8d6686"/><path d="M 177.5 142 A 35.5 35.5 0 0 1 213 177.5 L 177.5 177.5" fill="#f4c185"/><rect x="142" y="177.5" width="35.5" height="35.5" fill="#f6ca96"/><path d="M 142 177.5 A 35.5 35.5 0 0 0 177.5 213 L 177.5 177.5" fill="#e0e5c0"/><rect x="177.5" y="177.5" width="35.5" height="35.5" fill="#e6a6bc"/><path d="M 177.5 213 A 35.5 35.5 0 0 0 213 177.5 L 177.5 177.5" fill="#dc82a2"/><rect x="213" y="142" width="71" height="71" fill="#ffffff"/><rect x="213" y="142" width="35.5" height="35.5" fill="#fcebd7"/><polygon points="248.5,142 248.5,177.5 213,177.5" fill="#f7cfa1"/><rect x="248.5" y="142" width="35.5" height="35.5" fill="#fffcf2"/><polygon points="248.5,142 284,177.5 248.5,177.5" fill="#bba3b6"/><rect x="213" y="177.5" width="35.5" height="35.5" fill="#c93e6f"/><polygon points="213,177.5 248.5,177.5 213,213" fill="#fbdf64"/><rect x="248.5" y="177.5" width="35.5" height="35.5" fill="#dd85a4"/><polygon points="248.5,177.5 284,177.5 284,213" fill="#fefcf9"/><rect x="284" y="142" width="71" height="71" fill="#94a323"/><rect x="284" y="142" width="71" height="71" fill="#d87598"/><rect x="355" y="142" width="71" height="71" fill="#ffffff"/><rect x="355" y="142" width="35.5" height="35.5" fill="#e193ae"/><polygon points="390.5,142 390.5,177.5 355,177.5" fill="#f4d7e1"/><rect x="390.5" y="142" width="35.5" height="35.5" fill="#dee2ba"/><polygon points="390.5,142 426,177.5 390.5,177.5" fill="#e6dee5"/><rect x="355" y="177.5" width="35.5" height="35.5" fill="#eb8d1d"/><polygon points="355,177.5 390.5,177.5 390.5,213" fill="#f9cf18"/><rect x="390.5" y="177.5" width="35.5" height="35.5" fill="#eb8c1c"/><polygon points="390.5,177.5 426,177.5 390.5,213" fill="#e3e7c6"/><rect x="426" y="142" width="71" height="71" fill="#ffffff"/><rect x="426" y="142" width="35.5" height="35.5" fill="#a7b44b"/><polygon points="461.5,142 461.5,177.5 426,177.5" fill="#8d9d14"/><rect x="461.5" y="142" width="35.5" height="35.5" fill="#fae5cb"/><polygon points="461.5,142 497,142 461.5,177.5" fill="#f1ae60"/><rect x="426" y="177.5" width="35.5" height="35.5" fill="#cb4876"/><polygon points="426,177.5 461.5,177.5 461.5,213" fill="#f6e0e8"/><rect x="461.5" y="177.5" width="35.5" height="35.5" fill="#97a62a"/><polygon points="461.5,177.5 497,213 461.5,213" fill="#fae2c5"/><rect x="497" y="142" width="71" height="71" fill="#ffffff"/><rect x="497" y="142" width="35.5" height="35.5" fill="#d77396"/><path d="M 497 142 A 35.5 35.5 0 0 0 532.5 177.5 L 532.5 142" fill="#da7b9c"/><rect x="532.5" y="142" width="35.5" height="35.5" fill="#c5cd87"/><path d="M 532.5 177.5 A 35.5 35.5 0 0 0 568 142 L 532.5 142" fill="#e49fb7"/><rect x="497" y="177.5" width="35.5" height="35.5" fill="#f3bc7b"/><path d="M 497 213 A 35.5 35.5 0 0 1  532.5 177.5 L 532.5 213" fill="#a1af3f"/><rect x="532.5" y="177.5" width="35.5" height="35.5" fill="#fadd5b"/><path d="M 532.5 177.5 A 35.5 35.5 0 0 1 568 213 L 532.5 213" fill="#ed9731"/><rect x="568" y="142" width="71" height="71" fill="#ffffff"/><rect x="568" y="142" width="35.5" height="35.5" fill="#f8cc0b"/><polygon points="603.5,142 603.5,177.5 568,177.5" fill="#e1e6c2"/><rect x="603.5" y="142" width="35.5" height="35.5" fill="#f7f4f6"/><polygon points="603.5,142 639,142 603.5,177.5" fill="#92a220"/><rect x="568" y="177.5" width="35.5" height="35.5" fill="#a5859f"/><polygon points="568,177.5 603.5,177.5 603.5,213" fill="#fad949"/><rect x="603.5" y="177.5" width="35.5" height="35.5" fill="#99a82f"/><polygon points="603.5,177.5 639,213 603.5,213" fill="#4a0b3e"/><rect x="639" y="142" width="71" height="71" fill="#4c0f41"/><path d="M 639 142 A 71 71 0 0 0 710 213 L 710 142" fill="#ea8309"/><rect x="710" y="142" width="71" height="71" fill="#f9d533"/><polygon points="710,142 781,142 781,213" fill="#ee9b3a"/><rect x="781" y="142" width="71" height="71" fill="#ffffff"/><rect x="781" y="142" width="35.5" height="35.5" fill="#fef9e4"/><path d="M 781 142 A 35.5 35.5 0 0 0 816.5 177.5 L 816.5 142" fill="#aab650"/><rect x="816.5" y="142" width="35.5" height="35.5" fill="#d8cad5"/><path d="M 816.5 177.5 A 35.5 35.5 0 0 0 852 142 L 816.5 142" fill="#c7cf8b"/><rect x="781" y="177.5" width="35.5" height="35.5" fill="#f7cfa0"/><path d="M 781 213 A 35.5 35.5 0 0 1  816.5 177.5 L 816.5 213" fill="#fdefb4"/><rect x="816.5" y="177.5" width="35.5" height="35.5" fill="#ed942c"/><path d="M 816.5 177.5 A 35.5 35.5 0 0 1 852 213 L 816.5 213" fill="#855b7d"/><rect x="852" y="142" width="71" height="71" fill="#df8fab"/><polygon points="852,142 923,142 923,213" fill="#baa2b6"/><rect x="923" y="142" width="71" height="71" fill="#e8adc2"/><polygon points="994,142 994,213 923,213" fill="#dd87a6"/><rect x="994" y="142" width="71" height="71" fill="#ffffff"/><rect x="994" y="142" width="35.5" height="35.5" fill="#f5dde5"/><path d="M 994 142 A 35.5 35.5 0 0 0 1029.5 177.5 L 1029.5 142" fill="#997592"/><rect x="1029.5" y="142" width="35.5" height="35.5" fill="#c4cc86"/><path d="M 1029.5 177.5 A 35.5 35.5 0 0 0 1065 142 L 1029.5 142" fill="#ce527e"/><rect x="994" y="177.5" width="35.5" height="35.5" fill="#fceca1"/><path d="M 994 213 A 35.5 35.5 0 0 1  1029.5 177.5 L 1029.5 213" fill="#fcf0e2"/><rect x="1029.5" y="177.5" width="35.5" height="35.5" fill="#ec8f22"/><path d="M 1029.5 177.5 A 35.5 35.5 0 0 1 1065 213 L 1029.5 213" fill="#f5c791"/><rect x="1065" y="142" width="71" height="71" fill="#ffffff"/><rect x="1065" y="142" width="35.5" height="35.5" fill="#c63568"/><path d="M 1065 177.5 A 35.5 35.5 0 0 1  1100.5 142 L 1100.5 177.5" fill="#f5c48b"/><rect x="1100.5" y="142" width="35.5" height="35.5" fill="#eec4d3"/><path d="M 1100.5 142 A 35.5 35.5 0 0 1 1136 177.5 L 1100.5 177.5" fill="#fbf0f3"/><rect x="1065" y="177.5" width="35.5" height="35.5" fill="#f3bb78"/><path d="M 1065 177.5 A 35.5 35.5 0 0 0 1100.5 213 L 1100.5 177.5" fill="#fef8de"/><rect x="1100.5" y="177.5" width="35.5" height="35.5" fill="#a1819b"/><path d="M 1100.5 213 A 35.5 35.5 0 0 0 1136 177.5 L 1100.5 177.5" fill="#c63367"/><rect x="0" y="213" width="71" height="71" fill="#ffffff"/><rect x="0" y="213" width="35.5" height="35.5" fill="#f8cd0e"/><path d="M 0 248.5 A 35.5 35.5 0 0 0 35.5 213 L 0 213" fill="#bfa9bb"/><rect x="35.5" y="213" width="35.5" height="35.5" fill="#d5c6d2"/><path d="M 35.5 213 A 35.5 35.5 0 0 0 71 248.5 L 71 213" fill="#9d7b97"/><rect x="0" y="248.5" width="35.5" height="35.5" fill="#ec9227"/><path d="M 0 248.5 A 35.5 35.5 0 0 1 35.5 284 L 0 284" fill="#fefbea"/><rect x="35.5" y="248.5" width="35.5" height="35.5" fill="#90a01b"/><path d="M 35.5 284 A 35.5 35.5 0 0 1  71 248.5 L 71 284" fill="#ca4473"/><rect x="71" y="213" width="71" height="71" fill="#cdbcca"/><path d="M 71 213 A 71 71 0 0 1 142 284 L 71 284" fill="#fbde5f"/><rect x="142" y="213" width="71" height="71" fill="#fdf5eb"/><path d="M 142 284 A 71 71 0 0 1  213 213 L 213 284" fill="#9caa33"/><rect x="213" y="213" width="71" height="71" fill="#ffffff"/><rect x="213" y="213" width="35.5" height="35.5" fill="#e1d6df"/><path d="M 213 248.5 A 35.5 35.5 0 0 1 248.5 213 L 248.5 221.875 A 26.625 26.625 0 0 0 221.875 248.5" fill="#dbe1b6"/><rect x="248.5" y="213" width="35.5" height="35.5" fill="#d1c1ce"/><path d="M 248.5 213 A 35.5 35.5 0 0 1 284 248.5 L 275.125 248.5 A 26.625 26.625 0 0 0 248.5 221.875" fill="#abb753"/><rect x="213" y="248.5" width="35.5" height="35.5" fill="#eb8c1c"/><path d="M 213 248.5 A 35.5 35.5 0 0 0 248.5 284 L 248.5 275.125 A 26.625 26.625 0 0 1 221.875 248.5" fill="#ecbdce"/><rect x="248.5" y="248.5" width="35.5" height="35.5" fill="#e9ecd2"/><path d="M 248.5 284 A 35.5 35.5 0 0 0 284 248.5 L 275.125 248.5 A 26.625 26.625 0 0 1 248.5 275.125" fill="#571d4c"/><rect x="284" y="213" width="71" height="71" fill="#ffffff"/><rect x="284" y="213" width="35.5" height="35.5" fill="#f5c287"/><polygon points="319.5,213 319.5,248.5 284,248.5" fill="#f2d2de"/><rect x="319.5" y="213" width="35.5" height="35.5" fill="#fbe275"/><polygon points="319.5,213 355,248.5 319.5,248.5" fill="#f5c78f"/><rect x="284" y="248.5" width="35.5" height="35.5" fill="#906988"/><polygon points="284,248.5 319.5,248.5 284,284" fill="#ed9833"/><rect x="319.5" y="248.5" width="35.5" height="35.5" fill="#d56c91"/><polygon points="319.5,248.5 355,248.5 355,284" fill="#96718f"/><rect x="355" y="213" width="71" height="71" fill="#5e2653"/><rect x="355" y="213" width="71" height="71" fill="#ec9025"/><rect x="426" y="213" width="71" height="71" fill="#ffffff"/><rect x="426" y="213" width="35.5" height="35.5" fill="#997692"/><polygon points="461.5,213 461.5,248.5 426,248.5" fill="#dadfb3"/><rect x="461.5" y="213" width="35.5" height="35.5" fill="#fef4cb"/><polygon points="461.5,213 497,213 461.5,248.5" fill="#d7c9d5"/><rect x="426" y="248.5" width="35.5" height="35.5" fill="#dbe1b6"/><polygon points="426,248.5 461.5,248.5 461.5,284" fill="#f5c78f"/><rect x="461.5" y="248.5" width="35.5" height="35.5" fill="#fbe377"/><polygon points="461.5,248.5 497,284 461.5,284" fill="#f4d9e2"/><rect x="497" y="213" width="71" height="71" fill="#da7a9c"/><path d="M 497 213 A 71 71 0 0 1  568 284 L 497 213 A 71 71 0 0 0 568 284" fill="#916b8a"/><rect x="568" y="213" width="71" height="71" fill="#ffffff"/><rect x="568" y="213" width="35.5" height="35.5" fill="#dacdd8"/><polygon points="603.5,213 603.5,248.5 568,248.5" fill="#fbdd5c"/><rect x="603.5" y="213" width="35.5" height="35.5" fill="#d7cad5"/><polygon points="603.5,213 639,248.5 603.5,248.5" fill="#926c8a"/><rect x="568" y="248.5" width="35.5" height="35.5" fill="#8e6787"/><polygon points="568,248.5 603.5,248.5 568,284" fill="#fbe47f"/><rect x="603.5" y="248.5" width="35.5" height="35.5" fill="#fffcf3"/><polygon points="603.5,248.5 639,248.5 639,284" fill="#da7d9d"/><rect x="639" y="213" width="71" height="71" fill="#ffffff"/><rect x="639" y="213" width="35.5" height="35.5" fill="#f8ca00"/><path d="M 639 248.5 A 35.5 35.5 0 0 1 674.5 213 L 674.5 221.875 A 26.625 26.625 0 0 0 647.875 248.5" fill="#fbe276"/><rect x="674.5" y="213" width="35.5" height="35.5" fill="#fef9e4"/><path d="M 674.5 213 A 35.5 35.5 0 0 1 710 248.5 L 701.125 248.5 A 26.625 26.625 0 0 0 674.5 221.875" fill="#dfe3bd"/><rect x="639" y="248.5" width="35.5" height="35.5" fill="#eaedd3"/><path d="M 639 248.5 A 35.5 35.5 0 0 0 674.5 284 L 674.5 275.125 A 26.625 26.625 0 0 1 647.875 248.5" fill="#ede7ec"/><rect x="674.5" y="248.5" width="35.5" height="35.5" fill="#c53366"/><path d="M 674.5 284 A 35.5 35.5 0 0 0 710 248.5 L 701.125 248.5 A 26.625 26.625 0 0 1 674.5 275.125" fill="#fae4c9"/><rect x="710" y="213" width="71" height="71" fill="#ffffff"/><rect x="710" y="213" width="35.5" height="35.5" fill="#fffcf1"/><circle cx="727.75" cy="230.75" r="17.75" fill="#fbe16d"/><rect x="745.5" y="213" width="35.5" height="35.5" fill="#d56a8f"/><rect x="745.5" y="213" width="35.5" height="35.5" fill="#b4bf65"/><rect x="710" y="248.5" width="35.5" height="35.5" fill="#fefbeb"/><circle cx="727.75" cy="266.25" r="17.75" fill="#98a72b"/><rect x="745.5" y="248.5" width="35.5" height="35.5" fill="#fdeeaf"/><rect x="745.5" y="248.5" width="35.5" height="35.5" fill="#efa042"/><rect x="781" y="213" width="71" height="71" fill="#d05781"/><rect x="781" y="213" width="71" height="71" fill="#c83c6d"/><rect x="852" y="213" width="71" height="71" fill="#ffffff"/><rect x="852" y="213" width="35.5" height="35.5" fill="#fdf0b6"/><path d="M 852 248.5 A 35.5 35.5 0 0 1 887.5 213 L 887.5 221.875 A 26.625 26.625 0 0 0 860.875 248.5" fill="#fad638"/><rect x="887.5" y="213" width="35.5" height="35.5" fill="#511445"/><path d="M 887.5 213 A 35.5 35.5 0 0 1 923 248.5 L 914.125 248.5 A 26.625 26.625 0 0 0 887.5 221.875" fill="#fefae9"/><rect x="852" y="248.5" width="35.5" height="35.5" fill="#b3be63"/><path d="M 852 248.5 A 35.5 35.5 0 0 0 887.5 284 L 887.5 275.125 A 26.625 26.625 0 0 1 860.875 248.5" fill="#fffcf0"/><rect x="887.5" y="248.5" width="35.5" height="35.5" fill="#c7cf8c"/><path d="M 887.5 284 A 35.5 35.5 0 0 0 923 248.5 L 914.125 248.5 A 26.625 26.625 0 0 1 887.5 275.125" fill="#fef9e0"/><rect x="923" y="213" width="71" height="71" fill="#ffffff"/><rect x="923" y="213" width="35.5" height="35.5" fill="#ed9730"/><path d="M 923 213 A 35.5 35.5 0 0 1 958.5 248.5 L 923 248.5" fill="#f7d2a6"/><rect x="958.5" y="213" width="35.5" height="35.5" fill="#73436a"/><path d="M 958.5 248.5 A 35.5 35.5 0 0 1  994 213 L 994 248.5" fill="#f8cc08"/><rect x="923" y="248.5" width="35.5" height="35.5" fill="#f0cad7"/><path d="M 923 284 A 35.5 35.5 0 0 0 958.5 248.5 L 923 248.5" fill="#73436a"/><rect x="958.5" y="248.5" width="35.5" height="35.5" fill="#f8cc08"/><path d="M 958.5 248.5 A 35.5 35.5 0 0 0 994 284 L 994 248.5" fill="#fdf6ed"/><rect x="994" y="213" width="71" height="71" fill="#ffffff"/><rect x="994" y="213" width="35.5" height="35.5" fill="#f9d533"/><path d="M 994 213 A 35.5 35.5 0 0 0 1029.5 248.5 L 1029.5 213" fill="#fbe47b"/><rect x="1029.5" y="213" width="35.5" height="35.5" fill="#f7d2a6"/><path d="M 1029.5 248.5 A 35.5 35.5 0 0 0 1065 213 L 1029.5 213" fill="#f8d7af"/><rect x="994" y="248.5" width="35.5" height="35.5" fill="#d56b90"/><path d="M 994 284 A 35.5 35.5 0 0 1  1029.5 248.5 L 1029.5 284" fill="#cad292"/><rect x="1029.5" y="248.5" width="35.5" height="35.5" fill="#c2cb83"/><path d="M 1029.5 248.5 A 35.5 35.5 0 0 1 1065 284 L 1029.5 284" fill="#f3b670"/><rect x="1065" y="213" width="71" height="71" fill="#c7cf8b"/><polygon points="1065,213 1136,213 1065,284" fill="#fad843"/><rect x="0" y="284" width="71" height="71" fill="#551b4a"/><rect x="0" y="284" width="71" height="71" fill="#59204e"/><rect x="71" y="284" width="71" height="71" fill="#ffffff"/><rect x="71" y="284" width="35.5" height="35.5" fill="#fdf3e8"/><path d="M 71 319.5 A 35.5 35.5 0 0 0 106.5 284 L 71 284" fill="#fbe16f"/><rect x="106.5" y="284" width="35.5" height="35.5" fill="#f8d6ae"/><path d="M 106.5 284 A 35.5 35.5 0 0 0 142 319.5 L 142 284" fill="#fbe8d1"/><rect x="71" y="319.5" width="35.5" height="35.5" fill="#865c7e"/><path d="M 71 319.5 A 35.5 35.5 0 0 1 106.5 355 L 71 355" fill="#db81a1"/><rect x="106.5" y="319.5" width="35.5" height="35.5" fill="#fdeeaf"/><path d="M 106.5 355 A 35.5 35.5 0 0 1  142 319.5 L 142 355" fill="#f4f0f3"/><rect x="142" y="284" width="71" height="71" fill="#fafbf5"/><polygon points="142,284 213,284 142,355" fill="#df8fab"/><rect x="213" y="284" width="71" height="71" fill="#fdf1bd"/><rect x="213" y="284" width="71" height="71" fill="#f8cb04"/><rect x="284" y="284" width="71" height="71" fill="#f9cf18"/><path d="M 284 355 A 71 71 0 0 1  355 284 L 355 355" fill="#fce685"/><rect x="355" y="284" width="71" height="71" fill="#ffffff"/><rect x="355" y="284" width="35.5" height="35.5" fill="#f4c185"/><polygon points="390.5,284 390.5,319.5 355,319.5" fill="#d4678d"/><rect x="390.5" y="284" width="35.5" height="35.5" fill="#d4dba8"/><polygon points="390.5,284 426,319.5 390.5,319.5" fill="#efc7d5"/><rect x="355" y="319.5" width="35.5" height="35.5" fill="#f7e1e9"/><polygon points="355,319.5 390.5,319.5 390.5,355" fill="#fefae7"/><rect x="390.5" y="319.5" width="35.5" height="35.5" fill="#fae2c6"/><polygon points="390.5,319.5 426,319.5 390.5,355" fill="#f9ce14"/><rect x="426" y="284" width="71" height="71" fill="#73436a"/><path d="M 426 284 A 71 71 0 0 1 497 355 L 426 355" fill="#b8a0b4"/><rect x="497" y="284" width="71" height="71" fill="#b398ae"/><rect x="497" y="284" width="71" height="71" fill="#e08fac"/><rect x="568" y="284" width="71" height="71" fill="#ca4473"/><rect x="568" y="284" width="71" height="71" fill="#5c2452"/><rect x="639" y="284" width="71" height="71" fill="#db7e9e"/><path d="M 639 284 A 71 71 0 0 0 710 355 L 710 284" fill="#ffffff"/><rect x="710" y="284" width="71" height="71" fill="#ffffff"/><rect x="710" y="284" width="35.5" height="35.5" fill="#f6dfe7"/><circle cx="727.75" cy="301.75" r="17.75" fill="#fcea9b"/><rect x="745.5" y="284" width="35.5" height="35.5" fill="#f9dfbf"/><rect x="745.5" y="284" width="35.5" height="35.5" fill="#f9d42f"/><rect x="710" y="319.5" width="35.5" height="35.5" fill="#b4bf66"/><circle cx="727.75" cy="337.25" r="17.75" fill="#fbe9d4"/><rect x="745.5" y="319.5" width="35.5" height="35.5" fill="#fce890"/><rect x="745.5" y="319.5" width="35.5" height="35.5" fill="#fad638"/><rect x="781" y="284" width="71" height="71" fill="#ffffff"/><rect x="781" y="284" width="35.5" height="35.5" fill="#c7cf8b"/><polygon points="816.5,284 816.5,319.5 781,319.5" fill="#fdeda8"/><rect x="816.5" y="284" width="35.5" height="35.5" fill="#b59cb0"/><polygon points="816.5,284 852,319.5 816.5,319.5" fill="#fef8de"/><rect x="781" y="319.5" width="35.5" height="35.5" fill="#df8fab"/><polygon points="781,319.5 816.5,319.5 816.5,355" fill="#adb958"/><rect x="816.5" y="319.5" width="35.5" height="35.5" fill="#eab3c6"/><polygon points="816.5,319.5 852,319.5 816.5,355" fill="#d77195"/><rect x="852" y="284" width="71" height="71" fill="#fef7d8"/><rect x="852" y="284" width="71" height="71" fill="#f8d6ad"/><rect x="923" y="284" width="71" height="71" fill="#f6cd9b"/><path d="M 923 284 A 71 71 0 0 1  994 355 L 923 284 A 71 71 0 0 0 994 355" fill="#865c7e"/><rect x="994" y="284" width="71" height="71" fill="#ffffff"/><rect x="994" y="284" width="35.5" height="35.5" fill="#c2cb82"/><path d="M 994 284 A 35.5 35.5 0 0 0 1029.5 319.5 L 1029.5 284" fill="#fdedaa"/><rect x="1029.5" y="284" width="35.5" height="35.5" fill="#fbe8d1"/><path d="M 1029.5 319.5 A 35.5 35.5 0 0 0 1065 284 L 1029.5 284" fill="#f6c995"/><rect x="994" y="319.5" width="35.5" height="35.5" fill="#d8deaf"/><path d="M 994 355 A 35.5 35.5 0 0 1  1029.5 319.5 L 1029.5 355" fill="#abb854"/><rect x="1029.5" y="319.5" width="35.5" height="35.5" fill="#ebeed5"/><path d="M 1029.5 319.5 A 35.5 35.5 0 0 1 1065 355 L 1029.5 355" fill="#fcf6f8"/><rect x="1065" y="284" width="71" height="71" fill="#ffffff"/><rect x="1065" y="284" width="35.5" height="35.5" fill="#c6ce8a"/><circle cx="1082.75" cy="301.75" r="17.75" fill="#9f7d98"/><rect x="1100.5" y="284" width="35.5" height="35.5" fill="#fdf5ec"/><rect x="1100.5" y="284" width="35.5" height="35.5" fill="#f9d120"/><rect x="1065" y="319.5" width="35.5" height="35.5" fill="#f8cb06"/><circle cx="1082.75" cy="337.25" r="17.75" fill="#dce1b7"/><rect x="1100.5" y="319.5" width="35.5" height="35.5" fill="#fbe47b"/><rect x="1100.5" y="319.5" width="35.5" height="35.5" fill="#fefaf5"/><rect x="0" y="355" width="71" height="71" fill="#8b9c10"/><polygon points="0,355 71,355 0,426" fill="#f8d5ac"/><rect x="71" y="355" width="71" height="71" fill="#ffffff"/><rect x="71" y="355" width="35.5" height="35.5" fill="#f5dde5"/><path d="M 71 390.5 A 35.5 35.5 0 0 1 106.5 355 L 106.5 363.875 A 26.625 26.625 0 0 0 79.875 390.5" fill="#4c0d40"/><rect x="106.5" y="355" width="35.5" height="35.5" fill="#f2b369"/><path d="M 106.5 355 A 35.5 35.5 0 0 1 142 390.5 L 133.125 390.5 A 26.625 26.625 0 0 0 106.5 363.875" fill="#f6c994"/><rect x="71" y="390.5" width="35.5" height="35.5" fill="#fbe37a"/><path d="M 71 390.5 A 35.5 35.5 0 0 0 106.5 426 L 106.5 417.125 A 26.625 26.625 0 0 1 79.875 390.5" fill="#dd86a5"/><rect x="106.5" y="390.5" width="35.5" height="35.5" fill="#5c2452"/><path d="M 106.5 426 A 35.5 35.5 0 0 0 142 390.5 L 133.125 390.5 A 26.625 26.625 0 0 1 106.5 417.125" fill="#ac8fa7"/><rect x="142" y="355" width="71" height="71" fill="#fceca4"/><polygon points="142,355 213,355 142,426" fill="#f9d01b"/><rect x="213" y="355" width="71" height="71" fill="#da7a9c"/><path d="M 213 355 A 71 71 0 0 1 284 426 L 213 426" fill="#faecf1"/><rect x="284" y="355" width="71" height="71" fill="#fbe06c"/><rect x="284" y="355" width="71" height="71" fill="#8a6182"/><rect x="355" y="355" width="71" height="71" fill="#ffffff"/><rect x="355" y="355" width="35.5" height="35.5" fill="#fad73c"/><path d="M 355 390.5 A 35.5 35.5 0 0 1  390.5 355 L 390.5 390.5" fill="#fbe47f"/><rect x="390.5" y="355" width="35.5" height="35.5" fill="#7d4f74"/><path d="M 390.5 355 A 35.5 35.5 0 0 1 426 390.5 L 390.5 390.5" fill="#bfc97c"/><rect x="355" y="390.5" width="35.5" height="35.5" fill="#f8ce11"/><path d="M 355 390.5 A 35.5 35.5 0 0 0 390.5 426 L 390.5 390.5" fill="#977290"/><rect x="390.5" y="390.5" width="35.5" height="35.5" fill="#ccbac9"/><path d="M 390.5 426 A 35.5 35.5 0 0 0 426 390.5 L 390.5 390.5" fill="#fad949"/><rect x="426" y="355" width="71" height="71" fill="#ffffff"/><rect x="426" y="355" width="35.5" height="35.5" fill="#977290"/><polygon points="461.5,355 461.5,390.5 426,390.5" fill="#916b8a"/><rect x="461.5" y="355" width="35.5" height="35.5" fill="#f0a650"/><polygon points="461.5,355 497,390.5 461.5,390.5" fill="#a8b54d"/><rect x="426" y="390.5" width="35.5" height="35.5" fill="#6e3b64"/><polygon points="426,390.5 461.5,390.5 426,426" fill="#ed962f"/><rect x="461.5" y="390.5" width="35.5" height="35.5" fill="#f9ce15"/><polygon points="461.5,390.5 497,390.5 497,426" fill="#fad842"/><rect x="497" y="355" width="71" height="71" fill="#e97f02"/><rect x="497" y="355" width="71" height="71" fill="#ebe5ea"/><rect x="568" y="355" width="71" height="71" fill="#ffffff"/><rect x="568" y="355" width="35.5" height="35.5" fill="#d87597"/><path d="M 568 390.5 A 35.5 35.5 0 0 1 603.5 355 L 603.5 363.875 A 26.625 26.625 0 0 0 576.875 390.5" fill="#561b4b"/><rect x="603.5" y="355" width="35.5" height="35.5" fill="#ea850e"/><path d="M 603.5 355 A 35.5 35.5 0 0 1 639 390.5 L 630.125 390.5 A 26.625 26.625 0 0 0 603.5 363.875" fill="#fae2c5"/><rect x="568" y="390.5" width="35.5" height="35.5" fill="#f9ce15"/><path d="M 568 390.5 A 35.5 35.5 0 0 0 603.5 426 L 603.5 417.125 A 26.625 26.625 0 0 1 576.875 390.5" fill="#fbe16d"/><rect x="603.5" y="390.5" width="35.5" height="35.5" fill="#ed942c"/><path d="M 603.5 426 A 35.5 35.5 0 0 0 639 390.5 L 630.125 390.5 A 26.625 26.625 0 0 1 603.5 417.125" fill="#541848"/><rect x="639" y="355" width="71" height="71" fill="#ffffff"/><rect x="639" y="355" width="35.5" height="35.5" fill="#e195b0"/><polygon points="674.5,355 674.5,390.5 639,390.5" fill="#6c3962"/><rect x="674.5" y="355" width="35.5" height="35.5" fill="#f4bf80"/><polygon points="674.5,355 710,355 674.5,390.5" fill="#fbf2f5"/><rect x="639" y="390.5" width="35.5" height="35.5" fill="#fbe16d"/><polygon points="639,390.5 674.5,390.5 674.5,426" fill="#e195b0"/><rect x="674.5" y="390.5" width="35.5" height="35.5" fill="#f9d32c"/><polygon points="674.5,390.5 710,426 674.5,426" fill="#c0abbc"/><rect x="710" y="355" width="71" height="71" fill="#ffffff"/><rect x="710" y="355" width="35.5" height="35.5" fill="#d05882"/><path d="M 710 390.5 A 35.5 35.5 0 0 0 745.5 355 L 710 355" fill="#f5dae4"/><rect x="745.5" y="355" width="35.5" height="35.5" fill="#cf5580"/><path d="M 745.5 355 A 35.5 35.5 0 0 0 781 390.5 L 781 355" fill="#f9f7f9"/><rect x="710" y="390.5" width="35.5" height="35.5" fill="#f8ce12"/><path d="M 710 390.5 A 35.5 35.5 0 0 1 745.5 426 L 710 426" fill="#bcc675"/><rect x="745.5" y="390.5" width="35.5" height="35.5" fill="#df8eab"/><path d="M 745.5 426 A 35.5 35.5 0 0 1  781 390.5 L 781 426" fill="#f9dcb9"/><rect x="781" y="355" width="71" height="71" fill="#ffffff"/><rect x="781" y="355" width="35.5" height="35.5" fill="#99a82d"/><path d="M 781 390.5 A 35.5 35.5 0 0 0 816.5 355 L 781 355" fill="#6f3d65"/><rect x="816.5" y="355" width="35.5" height="35.5" fill="#e6eacc"/><path d="M 816.5 355 A 35.5 35.5 0 0 0 852 390.5 L 852 355" fill="#d7c9d4"/><rect x="781" y="390.5" width="35.5" height="35.5" fill="#fefcfd"/><path d="M 781 390.5 A 35.5 35.5 0 0 1 816.5 426 L 781 426" fill="#fdeda6"/><rect x="816.5" y="390.5" width="35.5" height="35.5" fill="#724269"/><path d="M 816.5 426 A 35.5 35.5 0 0 1  852 390.5 L 852 426" fill="#e39bb4"/><rect x="852" y="355" width="71" height="71" fill="#ffffff"/><rect x="852" y="355" width="35.5" height="35.5" fill="#f7e3ea"/><path d="M 852 390.5 A 35.5 35.5 0 0 1 887.5 355 L 887.5 363.875 A 26.625 26.625 0 0 0 860.875 390.5" fill="#eec3d2"/><rect x="887.5" y="355" width="35.5" height="35.5" fill="#b399ae"/><path d="M 887.5 355 A 35.5 35.5 0 0 1 923 390.5 L 914.125 390.5 A 26.625 26.625 0 0 0 887.5 363.875" fill="#f2b66e"/><rect x="852" y="390.5" width="35.5" height="35.5" fill="#faecf1"/><path d="M 852 390.5 A 35.5 35.5 0 0 0 887.5 426 L 887.5 417.125 A 26.625 26.625 0 0 1 860.875 390.5" fill="#551a49"/><rect x="887.5" y="390.5" width="35.5" height="35.5" fill="#d15b84"/><path d="M 887.5 426 A 35.5 35.5 0 0 0 923 390.5 L 914.125 390.5 A 26.625 26.625 0 0 1 887.5 417.125" fill="#b9c370"/><rect x="923" y="355" width="71" height="71" fill="#ffffff"/><rect x="923" y="355" width="35.5" height="35.5" fill="#6f3e66"/><path d="M 923 390.5 A 35.5 35.5 0 0 1  958.5 355 L 958.5 390.5" fill="#f0aa56"/><rect x="958.5" y="355" width="35.5" height="35.5" fill="#d7ddad"/><path d="M 958.5 355 A 35.5 35.5 0 0 1 994 390.5 L 958.5 390.5" fill="#e6e9cb"/><rect x="923" y="390.5" width="35.5" height="35.5" fill="#f8e6ec"/><path d="M 923 390.5 A 35.5 35.5 0 0 0 958.5 426 L 958.5 390.5" fill="#fce584"/><rect x="958.5" y="390.5" width="35.5" height="35.5" fill="#e196b0"/><path d="M 958.5 426 A 35.5 35.5 0 0 0 994 390.5 L 958.5 390.5" fill="#fefbea"/><rect x="994" y="355" width="71" height="71" fill="#6e3c65"/><polygon points="994,355 1065,426 994,426" fill="#e8e0e7"/><rect x="1065" y="355" width="71" height="71" fill="#ffffff"/><rect x="1065" y="355" width="35.5" height="35.5" fill="#d2c2cf"/><polygon points="1100.5,355 1100.5,390.5 1065,390.5" fill="#de8ba9"/><rect x="1100.5" y="355" width="35.5" height="35.5" fill="#fceedd"/><polygon points="1100.5,355 1136,390.5 1100.5,390.5" fill="#eb8c1b"/><rect x="1065" y="390.5" width="35.5" height="35.5" fill="#dde2b9"/><polygon points="1065,390.5 1100.5,390.5 1065,426" fill="#e8ebcf"/><rect x="1100.5" y="390.5" width="35.5" height="35.5" fill="#e49fb7"/><polygon points="1100.5,390.5 1136,390.5 1136,426" fill="#c4b0c0"/><rect x="0" y="426" width="71" height="71" fill="#ffffff"/><rect x="0" y="426" width="35.5" height="35.5" fill="#ec8e20"/><path d="M 0 461.5 A 35.5 35.5 0 0 0 35.5 426 L 0 426" fill="#fffcfa"/><rect x="35.5" y="426" width="35.5" height="35.5" fill="#e298b2"/><path d="M 35.5 426 A 35.5 35.5 0 0 0 71 461.5 L 71 426" fill="#fefefd"/><rect x="0" y="461.5" width="35.5" height="35.5" fill="#abb753"/><path d="M 0 461.5 A 35.5 35.5 0 0 1 35.5 497 L 0 497" fill="#f6cd9d"/><rect x="35.5" y="461.5" width="35.5" height="35.5" fill="#a5b247"/><path d="M 35.5 497 A 35.5 35.5 0 0 1  71 461.5 L 71 497" fill="#c1245b"/><rect x="71" y="426" width="71" height="71" fill="#c32b60"/><path d="M 71 497 A 71 71 0 0 0 142 426 L 71 426" fill="#946f8d"/><rect x="142" y="426" width="71" height="71" fill="#ffffff"/><rect x="142" y="426" width="35.5" height="35.5" fill="#f2b369"/><path d="M 142 461.5 A 35.5 35.5 0 0 1 177.5 426 L 177.5 434.875 A 26.625 26.625 0 0 0 150.875 461.5" fill="#f6c994"/><rect x="177.5" y="426" width="35.5" height="35.5" fill="#f8e6ec"/><path d="M 177.5 426 A 35.5 35.5 0 0 1 213 461.5 L 204.125 461.5 A 26.625 26.625 0 0 0 177.5 434.875" fill="#e8aec3"/><rect x="142" y="461.5" width="35.5" height="35.5" fill="#fbf2f5"/><path d="M 142 461.5 A 35.5 35.5 0 0 0 177.5 497 L 177.5 488.125 A 26.625 26.625 0 0 1 150.875 461.5" fill="#fce581"/><rect x="177.5" y="461.5" width="35.5" height="35.5" fill="#f0f2e0"/><path d="M 177.5 497 A 35.5 35.5 0 0 0 213 461.5 L 204.125 461.5 A 26.625 26.625 0 0 1 177.5 488.125" fill="#b79fb3"/><rect x="213" y="426" width="71" height="71" fill="#e091ad"/><polygon points="213,426 284,426 213,497" fill="#5a204f"/><rect x="284" y="426" width="71" height="71" fill="#ffffff"/><rect x="284" y="426" width="35.5" height="35.5" fill="#cb4776"/><circle cx="301.75" cy="443.75" r="17.75" fill="#d4c5d1"/><rect x="319.5" y="426" width="35.5" height="35.5" fill="#fcefe0"/><rect x="319.5" y="426" width="35.5" height="35.5" fill="#f9dfbf"/><rect x="284" y="461.5" width="35.5" height="35.5" fill="#f4f5e8"/><circle cx="301.75" cy="479.25" r="17.75" fill="#d15d85"/><rect x="319.5" y="461.5" width="35.5" height="35.5" fill="#c4cd86"/><rect x="319.5" y="461.5" width="35.5" height="35.5" fill="#b8c26d"/><rect x="355" y="426" width="71" height="71" fill="#ffffff"/><rect x="355" y="426" width="35.5" height="35.5" fill="#fce892"/><path d="M 355 461.5 A 35.5 35.5 0 0 1 390.5 426 L 390.5 434.875 A 26.625 26.625 0 0 0 363.875 461.5" fill="#916b8a"/><rect x="390.5" y="426" width="35.5" height="35.5" fill="#d56b90"/><path d="M 390.5 426 A 35.5 35.5 0 0 1 426 461.5 L 417.125 461.5 A 26.625 26.625 0 0 0 390.5 434.875" fill="#f1ae60"/><rect x="355" y="461.5" width="35.5" height="35.5" fill="#f1ac5b"/><path d="M 355 461.5 A 35.5 35.5 0 0 0 390.5 497 L 390.5 488.125 A 26.625 26.625 0 0 1 363.875 461.5" fill="#fbde60"/><rect x="390.5" y="461.5" width="35.5" height="35.5" fill="#f9dab6"/><path d="M 390.5 497 A 35.5 35.5 0 0 0 426 461.5 L 417.125 461.5 A 26.625 26.625 0 0 1 390.5 488.125" fill="#fef4cc"/><rect x="426" y="426" width="71" height="71" fill="#bdc677"/><rect x="426" y="426" width="71" height="71" fill="#eb8b1a"/><rect x="497" y="426" width="71" height="71" fill="#ffffff"/><rect x="497" y="426" width="35.5" height="35.5" fill="#f0f2e0"/><path d="M 497 426 A 35.5 35.5 0 0 0 532.5 461.5 L 532.5 426" fill="#f9dfbf"/><rect x="532.5" y="426" width="35.5" height="35.5" fill="#f9d533"/><path d="M 532.5 461.5 A 35.5 35.5 0 0 0 568 426 L 532.5 426" fill="#b4bf66"/><rect x="497" y="461.5" width="35.5" height="35.5" fill="#f5c388"/><path d="M 497 497 A 35.5 35.5 0 0 1  532.5 461.5 L 532.5 497" fill="#dee2ba"/><rect x="532.5" y="461.5" width="35.5" height="35.5" fill="#fadfc0"/><path d="M 532.5 461.5 A 35.5 35.5 0 0 1 568 497 L 532.5 497" fill="#ded2db"/><rect x="568" y="426" width="71" height="71" fill="#ffffff"/><rect x="568" y="426" width="35.5" height="35.5" fill="#c63367"/><path d="M 568 461.5 A 35.5 35.5 0 0 0 603.5 426 L 568 426" fill="#fdfdfd"/><rect x="603.5" y="426" width="35.5" height="35.5" fill="#fffefa"/><path d="M 603.5 426 A 35.5 35.5 0 0 0 639 461.5 L 639 426" fill="#f3b872"/><rect x="568" y="461.5" width="35.5" height="35.5" fill="#bf1d56"/><path d="M 568 461.5 A 35.5 35.5 0 0 1 603.5 497 L 568 497" fill="#fdf0b6"/><rect x="603.5" y="461.5" width="35.5" height="35.5" fill="#eb8916"/><path d="M 603.5 497 A 35.5 35.5 0 0 1  639 461.5 L 639 497" fill="#f9d535"/><rect x="639" y="426" width="71" height="71" fill="#ffffff"/><rect x="639" y="426" width="35.5" height="35.5" fill="#fbde61"/><path d="M 639 461.5 A 35.5 35.5 0 0 0 674.5 426 L 639 426" fill="#f3bb78"/><rect x="674.5" y="426" width="35.5" height="35.5" fill="#a6b348"/><path d="M 674.5 426 A 35.5 35.5 0 0 0 710 461.5 L 710 426" fill="#e9ecd2"/><rect x="639" y="461.5" width="35.5" height="35.5" fill="#d3648b"/><path d="M 639 461.5 A 35.5 35.5 0 0 1 674.5 497 L 639 497" fill="#e0d5de"/><rect x="674.5" y="461.5" width="35.5" height="35.5" fill="#fceba1"/><path d="M 674.5 497 A 35.5 35.5 0 0 1  710 461.5 L 710 497" fill="#dadfb2"/><rect x="710" y="426" width="71" height="71" fill="#ffffff"/><rect x="710" y="426" width="35.5" height="35.5" fill="#d2c3cf"/><polygon points="745.5,426 745.5,461.5 710,461.5" fill="#ebbacb"/><rect x="745.5" y="426" width="35.5" height="35.5" fill="#bbc574"/><polygon points="745.5,426 781,426 745.5,461.5" fill="#fdf2c0"/><rect x="710" y="461.5" width="35.5" height="35.5" fill="#d26088"/><polygon points="710,461.5 745.5,461.5 745.5,497" fill="#fdf1be"/><rect x="745.5" y="461.5" width="35.5" height="35.5" fill="#e090ac"/><polygon points="745.5,461.5 781,497 745.5,497" fill="#cb4775"/><rect x="781" y="426" width="71" height="71" fill="#be1a53"/><path d="M 781 497 A 71 71 0 0 0 852 426 L 781 426" fill="#f6ca97"/><rect x="852" y="426" width="71" height="71" fill="#ffffff"/><rect x="852" y="426" width="35.5" height="35.5" fill="#f9d534"/><path d="M 852 426 A 35.5 35.5 0 0 0 887.5 461.5 L 887.5 426" fill="#efa146"/><rect x="887.5" y="426" width="35.5" height="35.5" fill="#f5c68f"/><path d="M 887.5 461.5 A 35.5 35.5 0 0 0 923 426 L 887.5 426" fill="#f2d2dd"/><rect x="852" y="461.5" width="35.5" height="35.5" fill="#ebeed6"/><path d="M 852 497 A 35.5 35.5 0 0 1  887.5 461.5 L 887.5 497" fill="#fefefd"/><rect x="887.5" y="461.5" width="35.5" height="35.5" fill="#da7b9c"/><path d="M 887.5 461.5 A 35.5 35.5 0 0 1 923 497 L 887.5 497" fill="#9ba931"/><rect x="923" y="426" width="71" height="71" fill="#ffffff"/><rect x="923" y="426" width="35.5" height="35.5" fill="#fbfcf7"/><circle cx="940.75" cy="443.75" r="17.75" fill="#f1b062"/><rect x="958.5" y="426" width="35.5" height="35.5" fill="#cbb9c8"/><rect x="958.5" y="426" width="35.5" height="35.5" fill="#fefbed"/><rect x="923" y="461.5" width="35.5" height="35.5" fill="#fffcee"/><circle cx="940.75" cy="479.25" r="17.75" fill="#fbfafb"/><rect x="958.5" y="461.5" width="35.5" height="35.5" fill="#eef1dd"/><rect x="958.5" y="461.5" width="35.5" height="35.5" fill="#f5c58c"/><rect x="994" y="426" width="71" height="71" fill="#916a89"/><rect x="994" y="426" width="71" height="71" fill="#e6a7bd"/><rect x="1065" y="426" width="71" height="71" fill="#ffffff"/><rect x="1065" y="426" width="35.5" height="35.5" fill="#ecbbcd"/><path d="M 1065 426 A 35.5 35.5 0 0 0 1100.5 461.5 L 1100.5 426" fill="#f9dbb7"/><rect x="1100.5" y="426" width="35.5" height="35.5" fill="#eaedd4"/><path d="M 1100.5 461.5 A 35.5 35.5 0 0 0 1136 426 L 1100.5 426" fill="#f0a650"/><rect x="1065" y="461.5" width="35.5" height="35.5" fill="#a98ba3"/><path d="M 1065 497 A 35.5 35.5 0 0 1  1100.5 461.5 L 1100.5 497" fill="#987491"/><rect x="1100.5" y="461.5" width="35.5" height="35.5" fill="#8c9d14"/><path d="M 1100.5 461.5 A 35.5 35.5 0 0 1 1136 497 L 1100.5 497" fill="#b9c370"/><rect x="0" y="497" width="71" height="71" fill="#f7d1a5"/><rect x="0" y="497" width="71" height="71" fill="#f8ce11"/><rect x="71" y="497" width="71" height="71" fill="#815578"/><rect x="71" y="497" width="71" height="71" fill="#5e2653"/><rect x="142" y="497" width="71" height="71" fill="#ffffff"/><rect x="142" y="497" width="35.5" height="35.5" fill="#e9ecd1"/><circle cx="159.75" cy="514.75" r="17.75" fill="#5c2452"/><rect x="177.5" y="497" width="35.5" height="35.5" fill="#f5c68e"/><rect x="177.5" y="497" width="35.5" height="35.5" fill="#f9ce15"/><rect x="142" y="532.5" width="35.5" height="35.5" fill="#f0cbd8"/><circle cx="159.75" cy="550.25" r="17.75" fill="#fadd59"/><rect x="177.5" y="532.5" width="35.5" height="35.5" fill="#ac8fa6"/><rect x="177.5" y="532.5" width="35.5" height="35.5" fill="#fbf1f5"/><rect x="213" y="497" width="71" height="71" fill="#95708e"/><polygon points="213,497 284,497 213,568" fill="#fef7d7"/><rect x="284" y="497" width="71" height="71" fill="#fada4c"/><path d="M 284 497 A 71 71 0 0 1 355 568 L 284 568" fill="#c53266"/><rect x="355" y="497" width="71" height="71" fill="#db81a0"/><polygon points="355,497 426,497 426,568" fill="#f9e9ee"/><rect x="426" y="497" width="71" height="71" fill="#ffffff"/><rect x="426" y="497" width="35.5" height="35.5" fill="#bcc575"/><path d="M 426 532.5 A 35.5 35.5 0 0 1 461.5 497 L 461.5 505.875 A 26.625 26.625 0 0 0 434.875 532.5" fill="#fad63b"/><rect x="461.5" y="497" width="35.5" height="35.5" fill="#cb4775"/><path d="M 461.5 497 A 35.5 35.5 0 0 1 497 532.5 L 488.125 532.5 A 26.625 26.625 0 0 0 461.5 505.875" fill="#fbe47b"/><rect x="426" y="532.5" width="35.5" height="35.5" fill="#e7dfe6"/><path d="M 426 532.5 A 35.5 35.5 0 0 0 461.5 568 L 461.5 559.125 A 26.625 26.625 0 0 1 434.875 532.5" fill="#fadd5b"/><rect x="461.5" y="532.5" width="35.5" height="35.5" fill="#f5dce5"/><path d="M 461.5 568 A 35.5 35.5 0 0 0 497 532.5 L 488.125 532.5 A 26.625 26.625 0 0 1 461.5 559.125" fill="#fbf1f4"/><rect x="497" y="497" width="71" height="71" fill="#fceb9e"/><rect x="497" y="497" width="71" height="71" fill="#f9d124"/><rect x="568" y="497" width="71" height="71" fill="#eb8c1c"/><rect x="568" y="497" width="71" height="71" fill="#c63568"/><rect x="639" y="497" width="71" height="71" fill="#eee8ed"/><polygon points="639,497 710,497 710,568" fill="#ce527e"/><rect x="710" y="497" width="71" height="71" fill="#4f1244"/><rect x="710" y="497" width="71" height="71" fill="#bfc97c"/><rect x="781" y="497" width="71" height="71" fill="#d05882"/><path d="M 781 568 A 71 71 0 0 1  852 497 L 781 568 A 71 71 0 0 0 852 497" fill="#fcecda"/><rect x="852" y="497" width="71" height="71" fill="#ffffff"/><rect x="852" y="497" width="35.5" height="35.5" fill="#fbde60"/><path d="M 852 532.5 A 35.5 35.5 0 0 1 887.5 497 L 887.5 505.875 A 26.625 26.625 0 0 0 860.875 532.5" fill="#a8b44c"/><rect x="887.5" y="497" width="35.5" height="35.5" fill="#734269"/><path d="M 887.5 497 A 35.5 35.5 0 0 1 923 532.5 L 914.125 532.5 A 26.625 26.625 0 0 0 887.5 505.875" fill="#f8ca00"/><rect x="852" y="532.5" width="35.5" height="35.5" fill="#fce689"/><path d="M 852 532.5 A 35.5 35.5 0 0 0 887.5 568 L 887.5 559.125 A 26.625 26.625 0 0 1 860.875 532.5" fill="#cfbfcc"/><rect x="887.5" y="532.5" width="35.5" height="35.5" fill="#5d2552"/><path d="M 887.5 568 A 35.5 35.5 0 0 0 923 532.5 L 914.125 532.5 A 26.625 26.625 0 0 1 887.5 559.125" fill="#fceb9e"/><rect x="923" y="497" width="71" height="71" fill="#ffffff"/><rect x="923" y="497" width="35.5" height="35.5" fill="#f5c892"/><path d="M 923 532.5 A 35.5 35.5 0 0 1 958.5 497 L 958.5 505.875 A 26.625 26.625 0 0 0 931.875 532.5" fill="#cc4b79"/><rect x="958.5" y="497" width="35.5" height="35.5" fill="#dbe0b5"/><path d="M 958.5 497 A 35.5 35.5 0 0 1 994 532.5 L 985.125 532.5 A 26.625 26.625 0 0 0 958.5 505.875" fill="#f7f5f7"/><rect x="923" y="532.5" width="35.5" height="35.5" fill="#fce892"/><path d="M 923 532.5 A 35.5 35.5 0 0 0 958.5 568 L 958.5 559.125 A 26.625 26.625 0 0 1 931.875 532.5" fill="#b6c068"/><rect x="958.5" y="532.5" width="35.5" height="35.5" fill="#c3cb83"/><path d="M 958.5 568 A 35.5 35.5 0 0 0 994 532.5 L 985.125 532.5 A 26.625 26.625 0 0 1 958.5 559.125" fill="#f9f9f2"/><rect x="994" y="497" width="71" height="71" fill="#9c7a96"/><rect x="994" y="497" width="71" height="71" fill="#fbe273"/><rect x="1065" y="497" width="71" height="71" fill="#ffffff"/><rect x="1065" y="497" width="35.5" height="35.5" fill="#f0a955"/><polygon points="1100.5,497 1100.5,532.5 1065,532.5" fill="#a6b349"/><rect x="1100.5" y="497" width="35.5" height="35.5" fill="#fdf2c0"/><polygon points="1100.5,497 1136,497 1100.5,532.5" fill="#eec1d1"/><rect x="1065" y="532.5" width="35.5" height="35.5" fill="#eaedd3"/><polygon points="1065,532.5 1100.5,532.5 1100.5,568" fill="#a1819b"/><rect x="1100.5" y="532.5" width="35.5" height="35.5" fill="#ec8f21"/><polygon points="1100.5,532.5 1136,568 1100.5,568" fill="#e092ae"/><rect x="0" y="568" width="71" height="71" fill="#916b8a"/><rect x="0" y="568" width="71" height="71" fill="#ee9a38"/><rect x="71" y="568" width="71" height="71" fill="#e3e7c6"/><rect x="71" y="568" width="71" height="71" fill="#f7e2e9"/><rect x="142" y="568" width="71" height="71" fill="#bfa9bb"/><polygon points="142,568 213,568 142,639" fill="#fffdf7"/><rect x="213" y="568" width="71" height="71" fill="#e7dfe6"/><path d="M 213 568 A 71 71 0 0 1 284 639 L 213 639" fill="#f8ca01"/><rect x="284" y="568" width="71" height="71" fill="#f8d9b4"/><polygon points="284,568 355,639 284,639" fill="#eae3e9"/><rect x="355" y="568" width="71" height="71" fill="#5b2351"/><path d="M 355 639 A 71 71 0 0 0 426 568 L 355 568" fill="#b3be64"/><rect x="426" y="568" width="71" height="71" fill="#bf1c55"/><rect x="426" y="568" width="71" height="71" fill="#fbe379"/><rect x="497" y="568" width="71" height="71" fill="#ffffff"/><rect x="497" y="568" width="35.5" height="35.5" fill="#d1c1ce"/><path d="M 497 603.5 A 35.5 35.5 0 0 1  532.5 568 L 532.5 603.5" fill="#cf5680"/><rect x="532.5" y="568" width="35.5" height="35.5" fill="#fce994"/><path d="M 532.5 568 A 35.5 35.5 0 0 1 568 603.5 L 532.5 603.5" fill="#f8cb04"/><rect x="497" y="603.5" width="35.5" height="35.5" fill="#cb4775"/><path d="M 497 603.5 A 35.5 35.5 0 0 0 532.5 639 L 532.5 603.5" fill="#9eac38"/><rect x="532.5" y="603.5" width="35.5" height="35.5" fill="#f6ca97"/><path d="M 532.5 639 A 35.5 35.5 0 0 0 568 603.5 L 532.5 603.5" fill="#d4678d"/><rect x="568" y="568" width="71" height="71" fill="#ffffff"/><rect x="568" y="568" width="35.5" height="35.5" fill="#4c0d40"/><path d="M 568 603.5 A 35.5 35.5 0 0 0 603.5 568 L 568 568" fill="#d4daa7"/><rect x="603.5" y="568" width="35.5" height="35.5" fill="#f3f5e7"/><path d="M 603.5 568 A 35.5 35.5 0 0 0 639 603.5 L 639 568" fill="#a2829c"/><rect x="568" y="603.5" width="35.5" height="35.5" fill="#ca4373"/><path d="M 568 603.5 A 35.5 35.5 0 0 1 603.5 639 L 568 639" fill="#ebb9cb"/><rect x="603.5" y="603.5" width="35.5" height="35.5" fill="#d66e93"/><path d="M 603.5 639 A 35.5 35.5 0 0 1  639 603.5 L 639 639" fill="#fefae5"/><rect x="639" y="568" width="71" height="71" fill="#ffffff"/><rect x="639" y="568" width="35.5" height="35.5" fill="#d2c3cf"/><polygon points="674.5,568 674.5,603.5 639,603.5" fill="#e49fb8"/><rect x="674.5" y="568" width="35.5" height="35.5" fill="#ebbacb"/><polygon points="674.5,568 710,568 674.5,603.5" fill="#f8e5eb"/><rect x="639" y="603.5" width="35.5" height="35.5" fill="#e98207"/><polygon points="639,603.5 674.5,603.5 674.5,639" fill="#632d59"/><rect x="674.5" y="603.5" width="35.5" height="35.5" fill="#f0cad7"/><polygon points="674.5,603.5 710,639 674.5,639" fill="#dd88a6"/><rect x="710" y="568" width="71" height="71" fill="#b6c169"/><path d="M 710 568 A 71 71 0 0 1  781 639 L 710 568 A 71 71 0 0 0 781 639" fill="#c53265"/><rect x="781" y="568" width="71" height="71" fill="#ffffff"/><rect x="781" y="568" width="35.5" height="35.5" fill="#d2d9a3"/><polygon points="816.5,568 816.5,603.5 781,603.5" fill="#fef8dd"/><rect x="816.5" y="568" width="35.5" height="35.5" fill="#e7a8be"/><polygon points="816.5,568 852,568 816.5,603.5" fill="#aab651"/><rect x="781" y="603.5" width="35.5" height="35.5" fill="#fadb52"/><polygon points="781,603.5 816.5,603.5 816.5,639" fill="#f7d3a7"/><rect x="816.5" y="603.5" width="35.5" height="35.5" fill="#fefbf7"/><polygon points="816.5,603.5 852,639 816.5,639" fill="#e8dfe6"/><rect x="852" y="568" width="71" height="71" fill="#ffffff"/><rect x="852" y="568" width="35.5" height="35.5" fill="#c9d190"/><path d="M 852 568 A 35.5 35.5 0 0 1 887.5 603.5 L 852 603.5" fill="#e9e1e7"/><rect x="887.5" y="568" width="35.5" height="35.5" fill="#ad90a7"/><path d="M 887.5 603.5 A 35.5 35.5 0 0 1  923 568 L 923 603.5" fill="#90a01c"/><rect x="852" y="603.5" width="35.5" height="35.5" fill="#fdeda7"/><path d="M 852 639 A 35.5 35.5 0 0 0 887.5 603.5 L 852 603.5" fill="#f7f4f7"/><rect x="887.5" y="603.5" width="35.5" height="35.5" fill="#f0cad8"/><path d="M 887.5 603.5 A 35.5 35.5 0 0 0 923 639 L 923 603.5" fill="#f5f6ea"/><rect x="923" y="568" width="71" height="71" fill="#ffffff"/><rect x="923" y="568" width="35.5" height="35.5" fill="#f8cc0a"/><circle cx="940.75" cy="585.75" r="17.75" fill="#fcfdfa"/><rect x="958.5" y="568" width="35.5" height="35.5" fill="#6b3862"/><rect x="958.5" y="568" width="35.5" height="35.5" fill="#fdf3c7"/><rect x="923" y="603.5" width="35.5" height="35.5" fill="#c83e6e"/><circle cx="940.75" cy="621.25" r="17.75" fill="#98a72c"/><rect x="958.5" y="603.5" width="35.5" height="35.5" fill="#794a70"/><rect x="958.5" y="603.5" width="35.5" height="35.5" fill="#9a7793"/><rect x="994" y="568" width="71" height="71" fill="#ffffff"/><rect x="994" y="568" width="35.5" height="35.5" fill="#ea8711"/><path d="M 994 603.5 A 35.5 35.5 0 0 0 1029.5 568 L 994 568" fill="#e8afc3"/><rect x="1029.5" y="568" width="35.5" height="35.5" fill="#b6c16a"/><path d="M 1029.5 568 A 35.5 35.5 0 0 0 1065 603.5 L 1065 568" fill="#ccd396"/><rect x="994" y="603.5" width="35.5" height="35.5" fill="#f1af60"/><path d="M 994 603.5 A 35.5 35.5 0 0 1 1029.5 639 L 994 639" fill="#fcf6f8"/><rect x="1029.5" y="603.5" width="35.5" height="35.5" fill="#c2275d"/><path d="M 1029.5 639 A 35.5 35.5 0 0 1  1065 603.5 L 1065 639" fill="#dee3bb"/><rect x="1065" y="568" width="71" height="71" fill="#ffffff"/><rect x="1065" y="568" width="35.5" height="35.5" fill="#f9ddbb"/><path d="M 1065 603.5 A 35.5 35.5 0 0 1 1100.5 568 L 1100.5 576.875 A 26.625 26.625 0 0 0 1073.875 603.5" fill="#fad949"/><rect x="1100.5" y="568" width="35.5" height="35.5" fill="#e4e8c7"/><path d="M 1100.5 568 A 35.5 35.5 0 0 1 1136 603.5 L 1127.125 603.5 A 26.625 26.625 0 0 0 1100.5 576.875" fill="#bcc676"/><rect x="1065" y="603.5" width="35.5" height="35.5" fill="#de88a6"/><path d="M 1065 603.5 A 35.5 35.5 0 0 0 1100.5 639 L 1100.5 630.125 A 26.625 26.625 0 0 1 1073.875 603.5" fill="#cd4c79"/><rect x="1100.5" y="603.5" width="35.5" height="35.5" fill="#f1b062"/><path d="M 1100.5 639 A 35.5 35.5 0 0 0 1136 603.5 L 1127.125 603.5 A 26.625 26.625 0 0 1 1100.5 630.125" fill="#fffcef"/><rect x="0" y="639" width="71" height="71" fill="#e8ebcf"/><path d="M 0 710 A 71 71 0 0 1  71 639 L 0 710 A 71 71 0 0 0 71 639" fill="#622b57"/><rect x="71" y="639" width="71" height="71" fill="#ffffff"/><rect x="71" y="639" width="35.5" height="35.5" fill="#f5c790"/><path d="M 71 674.5 A 35.5 35.5 0 0 1  106.5 639 L 106.5 674.5" fill="#f6e0e8"/><rect x="106.5" y="639" width="35.5" height="35.5" fill="#fefae8"/><path d="M 106.5 639 A 35.5 35.5 0 0 1 142 674.5 L 106.5 674.5" fill="#75456c"/><rect x="71" y="674.5" width="35.5" height="35.5" fill="#e9e2e8"/><path d="M 71 674.5 A 35.5 35.5 0 0 0 106.5 710 L 106.5 674.5" fill="#fbead5"/><rect x="106.5" y="674.5" width="35.5" height="35.5" fill="#f6cc99"/><path d="M 106.5 710 A 35.5 35.5 0 0 0 142 674.5 L 106.5 674.5" fill="#f9d01b"/><rect x="142" y="639" width="71" height="71" fill="#f6ca96"/><path d="M 142 710 A 71 71 0 0 0 213 639 L 142 639" fill="#ee9d3e"/><rect x="213" y="639" width="71" height="71" fill="#eb8c1b"/><rect x="213" y="639" width="71" height="71" fill="#c7396b"/><rect x="284" y="639" width="71" height="71" fill="#ed9731"/><rect x="284" y="639" width="71" height="71" fill="#fcefdf"/><rect x="355" y="639" width="71" height="71" fill="#ffffff"/><rect x="355" y="639" width="35.5" height="35.5" fill="#cc4977"/><polygon points="390.5,639 390.5,674.5 355,674.5" fill="#ec8e20"/><rect x="390.5" y="639" width="35.5" height="35.5" fill="#f6c893"/><polygon points="390.5,639 426,674.5 390.5,674.5" fill="#906a89"/><rect x="355" y="674.5" width="35.5" height="35.5" fill="#784a6f"/><polygon points="355,674.5 390.5,674.5 390.5,710" fill="#cad293"/><rect x="390.5" y="674.5" width="35.5" height="35.5" fill="#dce1b6"/><polygon points="390.5,674.5 426,674.5 390.5,710" fill="#ae92a9"/><rect x="426" y="639" width="71" height="71" fill="#ffffff"/><rect x="426" y="639" width="35.5" height="35.5" fill="#f4bf80"/><path d="M 426 674.5 A 35.5 35.5 0 0 1  461.5 639 L 461.5 674.5" fill="#531848"/><rect x="461.5" y="639" width="35.5" height="35.5" fill="#fce686"/><path d="M 461.5 639 A 35.5 35.5 0 0 1 497 674.5 L 461.5 674.5" fill="#f5dde6"/><rect x="426" y="674.5" width="35.5" height="35.5" fill="#fcfbfc"/><path d="M 426 674.5 A 35.5 35.5 0 0 0 461.5 710 L 461.5 674.5" fill="#fefae9"/><rect x="461.5" y="674.5" width="35.5" height="35.5" fill="#b7c26c"/><path d="M 461.5 710 A 35.5 35.5 0 0 0 497 674.5 L 461.5 674.5" fill="#c2265d"/><rect x="497" y="639" width="71" height="71" fill="#68345f"/><rect x="497" y="639" width="71" height="71" fill="#ecbdcd"/><rect x="568" y="639" width="71" height="71" fill="#faecf0"/><polygon points="639,639 639,710 568,710" fill="#f9ddbc"/><rect x="639" y="639" width="71" height="71" fill="#ffffff"/><rect x="639" y="639" width="35.5" height="35.5" fill="#fcea9a"/><polygon points="674.5,639 674.5,674.5 639,674.5" fill="#94a424"/><rect x="674.5" y="639" width="35.5" height="35.5" fill="#d3648b"/><polygon points="674.5,639 710,674.5 674.5,674.5" fill="#f3b873"/><rect x="639" y="674.5" width="35.5" height="35.5" fill="#f1ad5d"/><polygon points="639,674.5 674.5,674.5 639,710" fill="#f9ddbc"/><rect x="674.5" y="674.5" width="35.5" height="35.5" fill="#d87397"/><polygon points="674.5,674.5 710,674.5 710,710" fill="#cdd599"/><rect x="710" y="639" width="71" height="71" fill="#ffffff"/><rect x="710" y="639" width="35.5" height="35.5" fill="#fada4f"/><polygon points="745.5,639 745.5,674.5 710,674.5" fill="#f9d01e"/><rect x="745.5" y="639" width="35.5" height="35.5" fill="#e39cb5"/><polygon points="745.5,639 781,674.5 745.5,674.5" fill="#eec3d2"/><rect x="710" y="674.5" width="35.5" height="35.5" fill="#fce78d"/><polygon points="710,674.5 745.5,674.5 710,710" fill="#fdedab"/><rect x="745.5" y="674.5" width="35.5" height="35.5" fill="#a4b245"/><polygon points="745.5,674.5 781,674.5 781,710" fill="#a3b042"/><rect x="781" y="639" width="71" height="71" fill="#ffffff"/><rect x="781" y="639" width="35.5" height="35.5" fill="#e39cb5"/><path d="M 781 674.5 A 35.5 35.5 0 0 1  816.5 639 L 816.5 674.5" fill="#a7b34a"/><rect x="816.5" y="639" width="35.5" height="35.5" fill="#fdf3e7"/><path d="M 816.5 639 A 35.5 35.5 0 0 1 852 674.5 L 816.5 674.5" fill="#f9d01b"/><rect x="781" y="674.5" width="35.5" height="35.5" fill="#ec8f21"/><path d="M 781 674.5 A 35.5 35.5 0 0 0 816.5 710 L 816.5 674.5" fill="#a4b245"/><rect x="816.5" y="674.5" width="35.5" height="35.5" fill="#ebe4ea"/><path d="M 816.5 710 A 35.5 35.5 0 0 0 852 674.5 L 816.5 674.5" fill="#e3e7c6"/><rect x="852" y="639" width="71" height="71" fill="#ffffff"/><rect x="852" y="639" width="35.5" height="35.5" fill="#fbdd5c"/><path d="M 852 674.5 A 35.5 35.5 0 0 0 887.5 639 L 852 639" fill="#f4be7f"/><rect x="887.5" y="639" width="35.5" height="35.5" fill="#b3be63"/><path d="M 887.5 639 A 35.5 35.5 0 0 0 923 674.5 L 923 639" fill="#66325c"/><rect x="852" y="674.5" width="35.5" height="35.5" fill="#bf1d56"/><path d="M 852 674.5 A 35.5 35.5 0 0 1 887.5 710 L 852 710" fill="#97a62a"/><rect x="887.5" y="674.5" width="35.5" height="35.5" fill="#fef6d5"/><path d="M 887.5 710 A 35.5 35.5 0 0 1  923 674.5 L 923 710" fill="#521646"/><rect x="923" y="639" width="71" height="71" fill="#fae1c3"/><path d="M 923 710 A 71 71 0 0 0 994 639 L 923 639" fill="#fad638"/><rect x="994" y="639" width="71" height="71" fill="#e196b1"/><path d="M 994 710 A 71 71 0 0 0 1065 639 L 994 639" fill="#f9d121"/><rect x="1065" y="639" width="71" height="71" fill="#d4c5d1"/><polygon points="1136,639 1136,710 1065,710" fill="#d9deb0"/></g></svg>